Coordinates
version=1
nRows=8
nColumns=40
inDegrees=yes

Units are S.I. units (second, meters, Newtons, ...)
Angles are in degrees.

endheader
time	pelvis_tilt	pelvis_list	pelvis_rotation	pelvis_tx	pelvis_ty	pelvis_tz	hip_flexion_r	hip_adduction_r	hip_rotation_r	knee_angle_r	knee_angle_r_beta	ankle_angle_r	subtalar_angle_r	mtp_angle_r	hip_flexion_l	hip_adduction_l	hip_rotation_l	knee_angle_l	knee_angle_l_beta	ankle_angle_l	subtalar_angle_l	mtp_angle_l	lumbar_extension	lumbar_bending	lumbar_rotation	arm_flex_r	arm_add_r	arm_rot_r	elbow_flex_r	pro_sup_r	wrist_flex_r	wrist_dev_r	arm_flex_l	arm_add_l	arm_rot_l	elbow_flex_l	pro_sup_l	wrist_flex_l	wrist_dev_l
     34.87750000	     -3.83951778	     -5.77022275	     -5.16302538	      1.10251777	      0.93653246	      0.42316555	     31.96520668	     -2.95180299	     -6.63330629	     42.80310997	     42.80310997	      1.98826678	     -8.34510843	     -0.03533470	     11.62944750	     -6.17297503	     -9.84040684	     20.58632376	     20.58632376	     14.66677019	     -9.15897951	      0.61814374	    -11.71586346	      4.87876441	     -0.00913041	     -6.82052955	    -15.10931184	     -4.48393862	     25.80802792	     46.71403841	      0.00000000	      0.00000000	     20.59473473	    -21.56442159	     -0.26211311	     61.03936109	     46.71115172	      0.00000000	      0.00000000
     34.89100000	     -3.88671132	     -5.70200002	     -5.43654243	      1.10144317	      0.93645126	      0.42348723	     31.38903399	     -2.79142278	     -7.19326092	     38.46181154	     38.46181154	      1.01128139	     -7.23075076	     -3.44282347	     11.09316950	     -6.15594460	    -10.44315216	     20.14530793	     20.14530793	     14.50269636	     -8.70481212	     -0.56315958	    -11.80532904	      4.74149686	      0.15527743	     -7.93123777	    -14.53205569	     -9.40917360	     26.62216373	     46.98467630	      0.00000000	      0.00000000	     21.45732147	    -21.31204385	     -1.19404895	     62.08533991	     46.88882713	      0.00000000	      0.00000000
     34.90450000	     -4.11245167	     -5.57629994	     -5.69902147	      1.10030649	      0.93606760	      0.42393751	     31.05752199	     -2.55914406	     -7.50400635	     34.41288542	     34.41288542	      1.28055244	     -5.79259553	     -2.85614420	     10.86257762	     -6.05349308	    -10.76466682	     19.89850836	     19.89850836	     14.66481015	     -8.55342259	     -0.65908186	    -11.58222444	      4.58670967	     -0.03030007	     -8.40741219	    -14.42913861	     -9.49353295	     26.45923099	     46.98933294	      0.00000000	      0.00000000	     22.20945320	    -21.59642334	     -1.32473834	     62.42866699	     46.91314568	      0.00000000	      0.00000000
     34.91800000	     -4.07991287	     -5.43583485	     -5.90138692	      1.09947774	      0.93592053	      0.42441380	     30.33112842	     -2.49348522	     -8.20644395	     30.45553830	     30.45553830	      1.73465120	     -3.48592271	     -2.08796770	     10.28890653	     -5.94548486	    -11.29700040	     19.57668527	     19.57668527	     14.89694983	     -7.96209966	     -0.94731709	    -11.64182897	      4.36492659	     -0.02546525	     -9.01115711	    -14.35419490	     -9.88044242	     26.49903444	     46.99713955	      0.00000000	      0.00000000	     23.05293013	    -21.54437342	     -1.57141998	     62.82776206	     46.95568699	      0.00000000	      0.00000000
     34.93150000	     -4.22520521	     -5.30420027	     -6.08820951	      1.09860792	      0.93542882	      0.42513740	     29.75581112	     -2.23941619	     -8.55210586	     26.65034323	     26.65034323	      1.93552956	     -1.98434164	     -1.22426266	      9.98404920	     -5.84068375	    -11.55860166	     19.36812458	     19.36812458	     15.08778720	     -7.80703373	     -1.10677756	    -11.45503894	      4.17011051	     -0.19887175	     -9.37886235	    -14.21423856	    -10.02776461	     26.55655215	     46.99658362	      0.00000000	      0.00000000	     23.67512802	    -21.64970167	     -1.72836839	     63.08537572	     46.98029850	      0.00000000	      0.00000000
     34.94500000	     -4.19767992	     -5.11748978	     -6.25290956	      1.09800348	      0.93505239	      0.42588898	     29.11623716	     -2.21315781	     -9.29091905	     23.52294139	     23.52294139	      2.87050993	      0.50804421	      1.20140379	      9.43355359	     -5.70320644	    -12.09872178	     19.08827736	     19.08827736	     15.28074724	     -7.17918001	     -1.62783810	    -11.46076538	      3.91905474	     -0.11176498	    -10.05168833	    -14.00016138	    -10.93258432	     27.37199677	     46.98971444	      0.00000000	      0.00000000	     24.50173493	    -21.34817683	     -2.26635216	     63.11749247	     47.05003821	      0.00000000	      0.00000000
     34.95850000	     -4.22620201	     -4.96775234	     -6.37750861	      1.09748908	      0.93459371	      0.42685035	     28.47007791	     -2.00144922	     -9.59389168	     20.60642078	     20.60642078	      3.05198694	      1.74709683	      2.23475351	      8.95394600	     -5.55525287	    -12.30812944	     18.81620200	     18.81620200	     15.50634207	     -7.03889098	     -1.77101516	    -11.30890511	      3.67821146	     -0.24793885	    -10.21895504	    -13.83287437	    -11.06964888	     27.49509502	     46.98513727	      0.00000000	      0.00000000	     24.98479221	    -21.37180769	     -2.34792799	     63.25791985	     47.06653229	      0.00000000	      0.00000000
     34.97200000	     -4.23558446	     -4.74791572	     -6.51093111	      1.09699977	      0.93414590	      0.42785727	     28.13966301	     -2.00897936	    -10.05621076	     18.84165695	     18.84165695	      4.46921996	      3.49975680	      6.32074235	      8.42865896	     -5.36240999	    -12.68402842	     18.48516835	     18.48516835	     15.59209114	     -6.61780252	     -2.29053933	    -11.25907505	      3.42110798	     -0.10819038	    -10.68109676	    -13.50899330	    -12.11327225	     28.42938555	     46.94863795	      0.00000000	      0.00000000	     25.73979625	    -21.00116241	     -2.71167796	     62.91743605	     47.12915274	      0.00000000	      0.00000000
